<?xml version="1.0" encoding="utf-8"?>
<!-- Generator: Adobe Illustrator 15.0.0, SVG Export Plug-In . SVG Version: 6.00 Build 0)  -->
<!DOCTYPE svg PUBLIC "-//W3C//DTD SVG 1.1//EN" "http://www.w3.org/Graphics/SVG/1.1/DTD/svg11.dtd">
<svg version="1.1" id="Layer_1" xmlns="http://www.w3.org/2000/svg" xmlns:xlink="http://www.w3.org/1999/xlink" x="0px" y="0px"
	 width="124.196px" height="35.422px" viewBox="0 0 124.196 35.422" enable-background="new 0 0 124.196 35.422"
	 xml:space="preserve">
<path fill="#FFFFFF" d="M24.577,34.348l-2.589-8.384H10.336l-2.588,8.384H1l10.144-31.41h10.103l10.146,31.41H24.577L24.577,34.348z
	 M12.013,20.468h8.276L16.152,7.076L12.013,20.468z"/>
<path fill="#FFFFFF" d="M53.014,34.348l-8.021-11.523H44.61c-0.99,0-2.087-0.034-3.289-0.105V34.35h-6.813V3.64
	c1.5-0.326,3.1-0.587,4.798-0.786c1.695-0.197,3.372-0.297,5.027-0.297c4.542,0,7.943,0.826,10.206,2.473
	c2.264,1.646,3.396,4.185,3.396,7.607c0,2.235-0.542,4.117-1.624,5.645c-1.084,1.526-2.644,2.674-4.681,3.438l8.914,12.628H53.014z
	 M41.32,17.496c1.188,0.128,2.327,0.191,3.416,0.191c2.292,0,3.981-0.396,5.073-1.188c1.089-0.792,1.634-2.073,1.634-3.841
	c0-1.74-0.521-3.009-1.561-3.809c-1.041-0.799-2.657-1.2-4.85-1.2c-1.245,0-2.482,0.106-3.714,0.319L41.32,17.496L41.32,17.496z"/>
<path fill="#FFFFFF" d="M86.544,20.604c1.031,1.254,1.548,2.898,1.548,4.938c0,2.008-0.512,3.688-1.538,5.04
	c-1.025,1.353-2.678,2.377-4.952,3.076c-2.281,0.698-5.279,1.051-9.001,1.051c-1.327,0-2.804-0.058-4.425-0.169
	c-1.619-0.114-3.095-0.264-4.425-0.446V3.64c1.485-0.326,3.12-0.587,4.901-0.786c1.783-0.197,3.509-0.297,5.179-0.297
	c4.643,0,8.032,0.72,10.176,2.154c2.145,1.437,3.216,3.632,3.216,6.59c0,1.668-0.438,3.111-1.314,4.329
	c-0.88,1.216-2.109,2.052-3.691,2.503C84.066,18.531,85.51,19.354,86.544,20.604 M70.52,7.968v7.746h4.457
	c2.064,0,3.541-0.329,4.424-0.987c0.887-0.658,1.327-1.678,1.327-3.065c0-0.962-0.199-1.74-0.593-2.334
	c-0.397-0.594-1.034-1.034-1.911-1.317c-0.878-0.283-2.052-0.424-3.521-0.424C73.287,7.586,71.895,7.714,70.52,7.968 M78.744,29.18
	c1.054-0.318,1.809-0.796,2.261-1.435c0.452-0.634,0.681-1.463,0.681-2.481c0-1.527-0.472-2.638-1.411-3.332
	c-0.94-0.691-2.479-1.039-4.616-1.039h-5.137v8.594c1.063,0.113,2.36,0.172,3.904,0.172C76.251,29.657,77.69,29.498,78.744,29.18"/>
<path fill="#FFFFFF" d="M113.092,34.348l-2.591-8.384H98.852l-2.589,8.384h-6.747l10.143-31.41h10.101l10.146,31.41H113.092
	L113.092,34.348z M100.529,20.468h8.273l-4.137-13.392L100.529,20.468z"/>
</svg>
